<mxfile host="Electron" agent="Mozilla/5.0 (Windows NT 10.0; Win64; x64) AppleWebKit/537.36 (KHTML, like Gecko) draw.io/28.0.4 Chrome/138.0.7204.97 Electron/37.2.1 Safari/537.36" version="28.0.4">
  <diagram name="Page-1" id="NwqAw14xY9WLK1lpd05I">
    <mxGraphModel dx="1240" dy="738" grid="1" gridSize="10" guides="1" tooltips="1" connect="1" arrows="1" fold="1" page="1" pageScale="1" pageWidth="850" pageHeight="1100" math="0" shadow="0">
      <root>
        <mxCell id="0" />
        <mxCell id="1" parent="0" />
        <mxCell id="4jV2SdzKha4BYt-22HoW-2" value="" style="edgeStyle=orthogonalEdgeStyle;rounded=0;orthogonalLoop=1;jettySize=auto;html=1;" edge="1" parent="1">
          <mxGeometry relative="1" as="geometry">
            <mxPoint x="200" y="160" as="sourcePoint" />
            <mxPoint x="200" y="240" as="targetPoint" />
          </mxGeometry>
        </mxCell>
        <mxCell id="XtAoHHLYlEtA0rZeBia_-2" value="&lt;font style=&quot;font-size: 36px;&quot;&gt;HxNT&lt;/font&gt;" style="text;html=1;align=center;verticalAlign=middle;resizable=0;points=[];autosize=1;strokeColor=none;fillColor=none;" parent="1" vertex="1">
          <mxGeometry x="10" y="10" width="120" height="60" as="geometry" />
        </mxCell>
        <mxCell id="4jV2SdzKha4BYt-22HoW-17" value="" style="edgeStyle=orthogonalEdgeStyle;rounded=0;orthogonalLoop=1;jettySize=auto;html=1;" edge="1" parent="1" source="4jV2SdzKha4BYt-22HoW-7">
          <mxGeometry relative="1" as="geometry">
            <mxPoint x="310" y="450" as="targetPoint" />
          </mxGeometry>
        </mxCell>
        <mxCell id="4jV2SdzKha4BYt-22HoW-36" value="" style="edgeStyle=orthogonalEdgeStyle;rounded=0;orthogonalLoop=1;jettySize=auto;html=1;" edge="1" parent="1" source="4jV2SdzKha4BYt-22HoW-7" target="4jV2SdzKha4BYt-22HoW-35">
          <mxGeometry relative="1" as="geometry" />
        </mxCell>
        <mxCell id="4jV2SdzKha4BYt-22HoW-7" value="Conversion" style="rounded=1;whiteSpace=wrap;html=1;absoluteArcSize=1;arcSize=14;strokeWidth=2;" vertex="1" parent="1">
          <mxGeometry x="150" y="400" width="100" height="100" as="geometry" />
        </mxCell>
        <mxCell id="4jV2SdzKha4BYt-22HoW-12" value="" style="edgeStyle=orthogonalEdgeStyle;rounded=0;orthogonalLoop=1;jettySize=auto;html=1;" edge="1" parent="1" source="4jV2SdzKha4BYt-22HoW-8" target="4jV2SdzKha4BYt-22HoW-9">
          <mxGeometry relative="1" as="geometry" />
        </mxCell>
        <mxCell id="4jV2SdzKha4BYt-22HoW-15" value="" style="edgeStyle=orthogonalEdgeStyle;rounded=0;orthogonalLoop=1;jettySize=auto;html=1;" edge="1" parent="1" source="4jV2SdzKha4BYt-22HoW-8" target="4jV2SdzKha4BYt-22HoW-7">
          <mxGeometry relative="1" as="geometry" />
        </mxCell>
        <mxCell id="4jV2SdzKha4BYt-22HoW-8" value="Splitting" style="rounded=1;whiteSpace=wrap;html=1;absoluteArcSize=1;arcSize=14;strokeWidth=2;" vertex="1" parent="1">
          <mxGeometry x="150" y="240" width="100" height="100" as="geometry" />
        </mxCell>
        <mxCell id="4jV2SdzKha4BYt-22HoW-14" value="" style="edgeStyle=orthogonalEdgeStyle;rounded=0;orthogonalLoop=1;jettySize=auto;html=1;" edge="1" parent="1" source="4jV2SdzKha4BYt-22HoW-9" target="4jV2SdzKha4BYt-22HoW-13">
          <mxGeometry relative="1" as="geometry" />
        </mxCell>
        <mxCell id="4jV2SdzKha4BYt-22HoW-9" value="ROL(AX)&lt;div&gt;[4]&lt;/div&gt;" style="rounded=1;whiteSpace=wrap;html=1;absoluteArcSize=1;arcSize=14;strokeWidth=2;" vertex="1" parent="1">
          <mxGeometry x="310" y="240" width="100" height="100" as="geometry" />
        </mxCell>
        <mxCell id="4jV2SdzKha4BYt-22HoW-11" value="INPUT(BYTE)" style="strokeWidth=2;html=1;shape=mxgraph.flowchart.start_1;whiteSpace=wrap;" vertex="1" parent="1">
          <mxGeometry x="150" y="100" width="100" height="60" as="geometry" />
        </mxCell>
        <mxCell id="4jV2SdzKha4BYt-22HoW-13" value="ROR(AL)&lt;div&gt;[4]&lt;/div&gt;" style="rounded=1;whiteSpace=wrap;html=1;absoluteArcSize=1;arcSize=14;strokeWidth=2;" vertex="1" parent="1">
          <mxGeometry x="470" y="240" width="100" height="100" as="geometry" />
        </mxCell>
        <mxCell id="4jV2SdzKha4BYt-22HoW-22" value="" style="edgeStyle=orthogonalEdgeStyle;rounded=0;orthogonalLoop=1;jettySize=auto;html=1;" edge="1" parent="1" source="4jV2SdzKha4BYt-22HoW-18" target="4jV2SdzKha4BYt-22HoW-21">
          <mxGeometry relative="1" as="geometry" />
        </mxCell>
        <mxCell id="4jV2SdzKha4BYt-22HoW-23" value="YES" style="edgeLabel;html=1;align=center;verticalAlign=middle;resizable=0;points=[];" vertex="1" connectable="0" parent="4jV2SdzKha4BYt-22HoW-22">
          <mxGeometry x="-0.3117" y="-4" relative="1" as="geometry">
            <mxPoint x="-8" y="4" as="offset" />
          </mxGeometry>
        </mxCell>
        <mxCell id="4jV2SdzKha4BYt-22HoW-25" value="" style="edgeStyle=orthogonalEdgeStyle;rounded=0;orthogonalLoop=1;jettySize=auto;html=1;" edge="1" parent="1" source="4jV2SdzKha4BYt-22HoW-18" target="4jV2SdzKha4BYt-22HoW-24">
          <mxGeometry relative="1" as="geometry" />
        </mxCell>
        <mxCell id="4jV2SdzKha4BYt-22HoW-26" value="NO" style="edgeLabel;html=1;align=center;verticalAlign=middle;resizable=0;points=[];" vertex="1" connectable="0" parent="4jV2SdzKha4BYt-22HoW-25">
          <mxGeometry x="-0.109" y="-2" relative="1" as="geometry">
            <mxPoint as="offset" />
          </mxGeometry>
        </mxCell>
        <mxCell id="4jV2SdzKha4BYt-22HoW-18" value="is&amp;nbsp;â‰¥ 0xA" style="strokeWidth=2;html=1;shape=mxgraph.flowchart.decision;whiteSpace=wrap;" vertex="1" parent="1">
          <mxGeometry x="600" y="570" width="100" height="100" as="geometry" />
        </mxCell>
        <mxCell id="4jV2SdzKha4BYt-22HoW-28" style="edgeStyle=orthogonalEdgeStyle;rounded=0;orthogonalLoop=1;jettySize=auto;html=1;entryX=0;entryY=0.5;entryDx=0;entryDy=0;" edge="1" parent="1" source="4jV2SdzKha4BYt-22HoW-19" target="4jV2SdzKha4BYt-22HoW-27">
          <mxGeometry relative="1" as="geometry" />
        </mxCell>
        <mxCell id="4jV2SdzKha4BYt-22HoW-19" value="MSB-Nibble" style="rounded=1;whiteSpace=wrap;html=1;absoluteArcSize=1;arcSize=14;strokeWidth=2;" vertex="1" parent="1">
          <mxGeometry x="450" y="400" width="100" height="100" as="geometry" />
        </mxCell>
        <mxCell id="4jV2SdzKha4BYt-22HoW-21" value="ADD &#39;A&#39; (-10)" style="rounded=1;whiteSpace=wrap;html=1;absoluteArcSize=1;arcSize=14;strokeWidth=2;" vertex="1" parent="1">
          <mxGeometry x="450" y="570" width="100" height="100" as="geometry" />
        </mxCell>
        <mxCell id="4jV2SdzKha4BYt-22HoW-24" value="ADD &#39;0&#39;" style="rounded=1;whiteSpace=wrap;html=1;absoluteArcSize=1;arcSize=14;strokeWidth=2;" vertex="1" parent="1">
          <mxGeometry x="750" y="570" width="100" height="100" as="geometry" />
        </mxCell>
        <mxCell id="4jV2SdzKha4BYt-22HoW-27" value="LSB-Nibble" style="rounded=1;whiteSpace=wrap;html=1;absoluteArcSize=1;arcSize=14;strokeWidth=2;" vertex="1" parent="1">
          <mxGeometry x="760" y="400" width="100" height="100" as="geometry" />
        </mxCell>
        <mxCell id="4jV2SdzKha4BYt-22HoW-40" value="" style="edgeStyle=orthogonalEdgeStyle;rounded=0;orthogonalLoop=1;jettySize=auto;html=1;" edge="1" parent="1" source="4jV2SdzKha4BYt-22HoW-35" target="4jV2SdzKha4BYt-22HoW-39">
          <mxGeometry relative="1" as="geometry" />
        </mxCell>
        <mxCell id="4jV2SdzKha4BYt-22HoW-45" value="" style="edgeStyle=orthogonalEdgeStyle;rounded=0;orthogonalLoop=1;jettySize=auto;html=1;" edge="1" parent="1" source="4jV2SdzKha4BYt-22HoW-35" target="4jV2SdzKha4BYt-22HoW-44">
          <mxGeometry relative="1" as="geometry" />
        </mxCell>
        <mxCell id="4jV2SdzKha4BYt-22HoW-35" value="Write Result" style="rounded=1;whiteSpace=wrap;html=1;absoluteArcSize=1;arcSize=14;strokeWidth=2;" vertex="1" parent="1">
          <mxGeometry x="150" y="700" width="100" height="100" as="geometry" />
        </mxCell>
        <mxCell id="4jV2SdzKha4BYt-22HoW-42" value="" style="edgeStyle=orthogonalEdgeStyle;rounded=0;orthogonalLoop=1;jettySize=auto;html=1;" edge="1" parent="1" source="4jV2SdzKha4BYt-22HoW-39">
          <mxGeometry relative="1" as="geometry">
            <mxPoint x="470" y="750.0000000000002" as="targetPoint" />
          </mxGeometry>
        </mxCell>
        <mxCell id="4jV2SdzKha4BYt-22HoW-39" value="XCHG(AX)" style="rounded=1;whiteSpace=wrap;html=1;absoluteArcSize=1;arcSize=14;strokeWidth=2;" vertex="1" parent="1">
          <mxGeometry x="310" y="700" width="100" height="100" as="geometry" />
        </mxCell>
        <mxCell id="4jV2SdzKha4BYt-22HoW-47" style="edgeStyle=orthogonalEdgeStyle;rounded=0;orthogonalLoop=1;jettySize=auto;html=1;entryX=0;entryY=0.5;entryDx=0;entryDy=0;" edge="1" parent="1" source="4jV2SdzKha4BYt-22HoW-44" target="4jV2SdzKha4BYt-22HoW-7">
          <mxGeometry relative="1" as="geometry">
            <Array as="points">
              <mxPoint x="90" y="900" />
              <mxPoint x="90" y="450" />
            </Array>
          </mxGeometry>
        </mxCell>
        <mxCell id="4jV2SdzKha4BYt-22HoW-48" value="NO" style="edgeLabel;html=1;align=center;verticalAlign=middle;resizable=0;points=[];" vertex="1" connectable="0" parent="4jV2SdzKha4BYt-22HoW-47">
          <mxGeometry x="-0.8986" y="-2" relative="1" as="geometry">
            <mxPoint as="offset" />
          </mxGeometry>
        </mxCell>
        <mxCell id="4jV2SdzKha4BYt-22HoW-53" value="" style="edgeStyle=orthogonalEdgeStyle;rounded=0;orthogonalLoop=1;jettySize=auto;html=1;" edge="1" parent="1" source="4jV2SdzKha4BYt-22HoW-44" target="4jV2SdzKha4BYt-22HoW-52">
          <mxGeometry relative="1" as="geometry" />
        </mxCell>
        <mxCell id="4jV2SdzKha4BYt-22HoW-56" value="YES" style="edgeLabel;html=1;align=center;verticalAlign=middle;resizable=0;points=[];" vertex="1" connectable="0" parent="4jV2SdzKha4BYt-22HoW-53">
          <mxGeometry x="-0.4797" y="1" relative="1" as="geometry">
            <mxPoint x="4" y="1" as="offset" />
          </mxGeometry>
        </mxCell>
        <mxCell id="4jV2SdzKha4BYt-22HoW-44" value="Is Count 0" style="strokeWidth=2;html=1;shape=mxgraph.flowchart.decision;whiteSpace=wrap;" vertex="1" parent="1">
          <mxGeometry x="150" y="850" width="100" height="100" as="geometry" />
        </mxCell>
        <mxCell id="4jV2SdzKha4BYt-22HoW-49" value="RETURN TO CALLER" style="strokeWidth=2;html=1;shape=mxgraph.flowchart.terminator;whiteSpace=wrap;" vertex="1" parent="1">
          <mxGeometry x="460" y="870" width="100" height="60" as="geometry" />
        </mxCell>
        <mxCell id="4jV2SdzKha4BYt-22HoW-54" value="" style="edgeStyle=orthogonalEdgeStyle;rounded=0;orthogonalLoop=1;jettySize=auto;html=1;" edge="1" parent="1" source="4jV2SdzKha4BYt-22HoW-52" target="4jV2SdzKha4BYt-22HoW-49">
          <mxGeometry relative="1" as="geometry" />
        </mxCell>
        <mxCell id="4jV2SdzKha4BYt-22HoW-52" value="Clean-Up" style="shape=parallelogram;html=1;strokeWidth=2;perimeter=parallelogramPerimeter;whiteSpace=wrap;rounded=1;arcSize=12;size=0.23;" vertex="1" parent="1">
          <mxGeometry x="310" y="870" width="100" height="60" as="geometry" />
        </mxCell>
        <mxCell id="4jV2SdzKha4BYt-22HoW-58" value="" style="edgeStyle=orthogonalEdgeStyle;rounded=0;orthogonalLoop=1;jettySize=auto;html=1;" edge="1" parent="1" source="4jV2SdzKha4BYt-22HoW-57" target="4jV2SdzKha4BYt-22HoW-19">
          <mxGeometry relative="1" as="geometry" />
        </mxCell>
        <mxCell id="4jV2SdzKha4BYt-22HoW-57" value="LODSB" style="shape=parallelogram;html=1;strokeWidth=2;perimeter=parallelogramPerimeter;whiteSpace=wrap;rounded=1;arcSize=12;size=0.23;" vertex="1" parent="1">
          <mxGeometry x="300" y="420" width="100" height="60" as="geometry" />
        </mxCell>
        <mxCell id="4jV2SdzKha4BYt-22HoW-59" value="STORE&lt;div&gt;(WORD)&lt;/div&gt;" style="shape=parallelogram;html=1;strokeWidth=2;perimeter=parallelogramPerimeter;whiteSpace=wrap;rounded=1;arcSize=12;size=0.23;" vertex="1" parent="1">
          <mxGeometry x="460" y="720" width="100" height="60" as="geometry" />
        </mxCell>
        <mxCell id="4jV2SdzKha4BYt-22HoW-61" style="edgeStyle=orthogonalEdgeStyle;rounded=0;orthogonalLoop=1;jettySize=auto;html=1;entryX=0.5;entryY=0;entryDx=0;entryDy=0;entryPerimeter=0;" edge="1" parent="1" source="4jV2SdzKha4BYt-22HoW-19" target="4jV2SdzKha4BYt-22HoW-18">
          <mxGeometry relative="1" as="geometry">
            <Array as="points">
              <mxPoint x="500" y="530" />
              <mxPoint x="650" y="530" />
            </Array>
          </mxGeometry>
        </mxCell>
        <mxCell id="4jV2SdzKha4BYt-22HoW-62" style="edgeStyle=orthogonalEdgeStyle;rounded=0;orthogonalLoop=1;jettySize=auto;html=1;entryX=0.5;entryY=0;entryDx=0;entryDy=0;entryPerimeter=0;" edge="1" parent="1" source="4jV2SdzKha4BYt-22HoW-27" target="4jV2SdzKha4BYt-22HoW-18">
          <mxGeometry relative="1" as="geometry">
            <Array as="points">
              <mxPoint x="810" y="530" />
              <mxPoint x="650" y="530" />
            </Array>
          </mxGeometry>
        </mxCell>
      </root>
    </mxGraphModel>
  </diagram>
</mxfile>
